<?xml version="1.0" encoding="UTF-8"?>
<svg id="Warstwa_1" data-name="Warstwa 1" xmlns="http://www.w3.org/2000/svg" viewBox="0 0 476.14 424.15">
  <defs>
    <style>
      .cls-1 {
        fill: #ef9d78;
      }
    </style>
  </defs>
  <path class="cls-1" d="M295.14,350.02c-1.13-13.82-4.34-26.89-8.72-39.77-4.8-14.16-15-24.16-29.45-27.99s-31.01-3.74-45.8,1.27c-11.53,3.9-20.1,11.81-25.14,22.75-3.96,8.58-7.15,17.47-8.27,27l-5.2,44.16-4.68,32.91c-.38,5.81-5.33,9.95-10.61,10.11l-42.64,1.31c-11.39.35-22.55-.25-33.51-2.17-9.73-1.7-16.41-8.12-18.35-17.7-7.71-37.97-3.56-82.35,1.58-121.2l7.33-61.85-22.58,3.56S9.97,238.67.79,209.27c-8.49-27.17,54.65-79.72,54.65-79.72l52.27-45.95,85.85-60.79,30.54-18.06c11.61-6.86,24.95-5.96,36.96.52,13.76,7.43,26.03,16.5,37.82,27.18l29.8,26.99,1.87-26.85c.22-6.47,2.73-12.3,7.89-15.9,18.58-3.8,54.95-6.69,56.67,10.92l2.2,22.51.53,57.11s78.29,58.79,78.29,104.83c0,30.97-62.73,6.39-62.95,11.84l-2.16,53.68-.69,81.53c-.1,11.97-1.28,23.34-3.93,34.65-3.21,13.73-12.91,23.47-26.85,26.68-21.33,4.91-43.35,4.39-65.13,1.51-6.53-.87-11.28-5.46-11.72-12.11l-7.57-59.83Z"/>
</svg>