<?xml version="1.0" encoding="UTF-8"?>
<svg id="Warstwa_1" xmlns="http://www.w3.org/2000/svg" version="1.1" viewBox="0 0 398.69 424.15">
  <!-- Generator: Adobe Illustrator 30.6.0, SVG Export Plug-In . SVG Version: 2.1.4 Build 109)  -->
  <defs>
    <style>
      .st0 {
        fill: #ef9d78;
      }
    </style>
  </defs>
  <path class="st0" d="M367.04,384.07c-36.87,2.53-91.63-24.87-198.21-1.57-37.25,8.15-71.86,20-107.8,32.52-12.12,4.22-24.23,8.65-36.47,9.11-15.1.56-26.34-11.81-24.33-26.72,2.73-20.19,11.12-38.28,22.58-55.72,42.36-64.45,111.72-107.33,188.74-115.3,72.05-7.46,141.49,20.08,175.82,84.34,6.06,11.35,9.92,23.2,11.13,35.66,1.92,19.95-11.26,36.31-31.46,37.69Z"/>
  <path class="st0" d="M290.68,74.63c-.16,56.06-46.7,112.19-102.69,123.35-26.82,5.35-54.73.36-75.59-17.49-22.87-19.56-31.56-49.73-26.43-79.73C97.57,33.03,165.16-11.99,231.91,2.83c35.06,7.78,58.87,35.63,58.77,71.8Z"/>
</svg>