<svg width="30" height="38" viewBox="0 0 30 38" fill="none" xmlns="http://www.w3.org/2000/svg">
<path d="M9.80 16.68L10.01 16.26L10.08 15.80L10.01 15.35L9.80 14.93L9.48 14.60L9.06 14.39L8.60 14.32L8.15 14.39L7.73 14.60L7.91 14.43L8.12 14.24L8.36 14.03L8.64 13.80L8.94 13.55L9.26 13.29L9.61 13.02L9.98 12.73L10.37 12.45L10.77 12.16L11.18 11.86L11.60 11.57L12.02 11.28L12.45 10.98L12.87 10.70L13.28 10.41L13.69 10.14L14.08 9.86L14.48 9.61L14.91 9.33L15.35 9.04L15.80 8.74L16.26 8.43L16.72 8.11L17.19 7.79L17.65 7.47L18.11 7.16L18.55 6.86L18.99 6.57L19.41 6.29L19.80 6.03L20.18 5.79L20.52 5.58L20.83 5.40L21.11 5.24L21.34 5.11L20.99 5.44L20.75 5.86L20.66 6.34L20.71 6.82L20.91 7.26L21.24 7.61L21.66 7.85L22.14 7.94L22.62 7.89L23.06 7.69L22.84 7.86L22.59 8.05L22.29 8.27L21.96 8.50L21.60 8.75L21.20 9.01L20.78 9.29L20.35 9.57L19.89 9.86L19.43 10.16L18.96 10.46L18.49 10.76L18.03 11.07L17.57 11.37L17.13 11.67L16.70 11.97L16.30 12.26L15.92 12.54L15.54 12.80L15.16 13.08L14.76 13.37L14.35 13.66L13.95 13.97L13.54 14.27L13.13 14.57L12.73 14.87L12.33 15.15L11.94 15.43L11.56 15.69L11.20 15.94L10.85 16.17L10.52 16.38L10.21 16.57L9.93 16.74L9.68 16.88L9.47 17.00ZM8.12 23.88L8.61 23.96L9.09 23.88L9.52 23.66L9.86 23.31L10.08 22.88L10.16 22.39L10.08 21.91L9.86 21.48L9.51 21.14L9.71 21.28L9.94 21.45L10.20 21.65L10.48 21.87L10.79 22.11L11.13 22.36L11.48 22.62L11.85 22.89L12.24 23.17L12.65 23.45L13.06 23.73L13.48 24.01L13.91 24.29L14.34 24.56L14.76 24.83L15.18 25.08L15.59 25.33L15.99 25.57L16.38 25.83L16.79 26.11L17.21 26.40L17.65 26.70L18.10 27.02L18.55 27.34L19.01 27.67L19.46 28.00L19.90 28.33L20.33 28.65L20.75 28.96L21.15 29.26L21.53 29.55L21.89 29.81L22.21 30.05L22.51 30.27L22.77 30.46L22.99 30.61L22.58 30.42L22.14 30.37L21.70 30.46L21.31 30.68L21.01 31.01L20.82 31.42L20.77 31.86L20.86 32.30L21.08 32.69L21.41 32.99L21.18 32.85L20.91 32.68L20.60 32.50L20.25 32.29L19.87 32.07L19.46 31.83L19.02 31.58L18.57 31.32L18.10 31.05L17.62 30.77L17.14 30.48L16.66 30.18L16.18 29.89L15.72 29.59L15.26 29.29L14.82 29.00L14.40 28.71L14.01 28.43L13.64 28.13L13.25 27.83L12.86 27.51L12.46 27.19L12.06 26.87L11.66 26.55L11.25 26.24L10.85 25.93L10.46 25.63L10.07 25.35L9.69 25.07L9.33 24.81L8.99 24.57L8.67 24.35L8.38 24.15L8.11 23.96L7.88 23.80L7.69 23.66ZM11.02 19.20L11.02 19.39L11.02 19.59L11.01 19.80L10.99 20.01L10.96 20.22L10.93 20.44L10.88 20.65L10.83 20.87L10.77 21.09L10.70 21.30L10.63 21.51L10.54 21.72L10.45 21.92L10.36 22.11L10.26 22.30L10.15 22.49L10.03 22.66L9.91 22.82L9.79 22.98L9.64 23.13L9.49 23.29L9.33 23.44L9.16 23.59L8.98 23.73L8.80 23.87L8.61 24.01L8.41 24.14L8.21 24.26L8.01 24.37L7.81 24.47L7.60 24.57L7.40 24.65L7.19 24.72L6.99 24.78L6.79 24.83L6.60 24.86L6.40 24.88L6.20 24.88L6.00 24.87L5.80 24.85L5.59 24.82L5.38 24.78L5.17 24.72L4.96 24.66L4.75 24.59L4.54 24.51L4.33 24.43L4.12 24.34L3.92 24.25L3.72 24.15L3.53 24.05L3.34 23.95L3.16 23.84L2.98 23.74L2.80 23.63L2.63 23.52L2.45 23.40L2.28 23.28L2.10 23.15L1.93 23.02L1.76 22.88L1.59 22.74L1.43 22.60L1.27 22.45L1.12 22.29L0.98 22.13L0.85 21.97L0.72 21.81L0.61 21.64L0.51 21.47L0.42 21.29L0.34 21.12L0.27 20.93L0.21 20.74L0.16 20.54L0.12 20.33L0.09 20.12L0.06 19.90L0.05 19.68L0.04 19.45L0.04 19.22L0.05 19.00L0.06 18.77L0.09 18.55L0.12 18.33L0.16 18.11L0.20 17.90L0.25 17.69L0.31 17.49L0.38 17.30L0.46 17.11L0.54 16.92L0.64 16.74L0.74 16.55L0.86 16.36L0.98 16.17L1.11 15.99L1.24 15.81L1.38 15.64L1.53 15.47L1.69 15.30L1.84 15.15L2.00 15.00L2.17 14.86L2.33 14.73L2.50 14.62L2.67 14.51L2.84 14.42L3.01 14.34L3.20 14.26L3.39 14.20L3.58 14.15L3.78 14.10L3.99 14.07L4.20 14.04L4.42 14.02L4.63 14.00L4.85 14.00L5.06 14.00L5.28 14.01L5.49 14.02L5.70 14.04L5.90 14.07L6.10 14.10L6.30 14.13L6.49 14.17L6.67 14.22L6.85 14.27L7.04 14.34L7.22 14.40L7.40 14.48L7.58 14.56L7.76 14.65L7.93 14.75L8.11 14.85L8.27 14.95L8.44 15.06L8.60 15.18L8.76 15.30L8.91 15.43L9.06 15.55L9.20 15.69L9.33 15.82L9.46 15.96L9.59 16.10L9.71 16.25L9.83 16.41L9.95 16.57L10.07 16.74L10.18 16.92L10.29 17.10L10.40 17.28L10.49 17.46L10.59 17.65L10.67 17.84L10.75 18.04L10.82 18.23L10.88 18.43L10.93 18.62L10.97 18.82L11.00 19.01ZM29.57 5.40L29.57 5.59L29.57 5.78L29.56 5.98L29.55 6.18L29.53 6.39L29.50 6.59L29.47 6.80L29.43 7.01L29.39 7.21L29.34 7.41L29.28 7.61L29.22 7.81L29.14 8.00L29.07 8.18L28.98 8.35L28.88 8.52L28.78 8.67L28.67 8.82L28.55 8.95L28.42 9.09L28.28 9.21L28.12 9.34L27.96 9.45L27.79 9.57L27.61 9.67L27.42 9.77L27.23 9.87L27.04 9.95L26.84 10.04L26.64 10.11L26.45 10.18L26.25 10.24L26.05 10.29L25.86 10.34L25.67 10.37L25.48 10.40L25.30 10.42L25.11 10.44L24.92 10.44L24.73 10.44L24.53 10.43L24.34 10.41L24.14 10.38L23.94 10.35L23.75 10.32L23.55 10.27L23.36 10.22L23.17 10.16L22.98 10.10L22.80 10.03L22.62 9.96L22.44 9.88L22.27 9.80L22.11 9.71L21.95 9.62L21.79 9.52L21.63 9.41L21.47 9.29L21.31 9.17L21.15 9.04L21.00 8.91L20.85 8.77L20.70 8.62L20.57 8.47L20.43 8.32L20.30 8.17L20.18 8.01L20.07 7.84L19.97 7.68L19.88 7.51L19.79 7.34L19.72 7.18L19.66 7.00L19.60 6.82L19.56 6.63L19.52 6.44L19.48 6.24L19.46 6.04L19.44 5.83L19.43 5.62L19.43 5.41L19.43 5.20L19.44 4.99L19.46 4.78L19.49 4.58L19.52 4.38L19.56 4.18L19.60 3.99L19.66 3.80L19.72 3.62L19.79 3.45L19.86 3.27L19.95 3.10L20.05 2.92L20.15 2.75L20.27 2.58L20.39 2.41L20.51 2.24L20.64 2.08L20.78 1.92L20.92 1.77L21.07 1.63L21.22 1.49L21.37 1.35L21.53 1.23L21.69 1.11L21.85 1.01L22.01 0.91L22.17 0.82L22.35 0.74L22.53 0.66L22.71 0.59L22.90 0.52L23.10 0.46L23.30 0.41L23.51 0.36L23.71 0.32L23.92 0.29L24.12 0.27L24.33 0.25L24.53 0.24L24.74 0.24L24.93 0.24L25.13 0.26L25.32 0.28L25.50 0.31L25.68 0.35L25.86 0.40L26.04 0.46L26.23 0.53L26.41 0.61L26.59 0.70L26.77 0.79L26.95 0.89L27.12 1.00L27.29 1.11L27.46 1.23L27.62 1.36L27.78 1.48L27.93 1.62L28.07 1.75L28.21 1.89L28.33 2.03L28.45 2.17L28.56 2.31L28.67 2.47L28.77 2.62L28.86 2.79L28.95 2.96L29.03 3.14L29.11 3.32L29.18 3.50L29.25 3.69L29.31 3.88L29.36 4.07L29.41 4.26L29.45 4.45L29.49 4.64L29.52 4.83L29.54 5.03L29.56 5.21ZM29.93 33.00L29.93 33.19L29.93 33.39L29.91 33.59L29.88 33.79L29.85 34.00L29.81 34.21L29.76 34.42L29.70 34.63L29.63 34.84L29.56 35.04L29.48 35.24L29.39 35.44L29.29 35.64L29.20 35.82L29.09 36.00L28.98 36.17L28.86 36.33L28.74 36.48L28.61 36.62L28.47 36.75L28.32 36.88L28.17 37.01L28.00 37.13L27.83 37.25L27.65 37.36L27.46 37.46L27.27 37.56L27.08 37.65L26.88 37.74L26.68 37.82L26.48 37.89L26.28 37.96L26.08 38.01L25.89 38.06L25.70 38.10L25.51 38.14L25.32 38.16L25.12 38.18L24.92 38.19L24.72 38.19L24.51 38.19L24.31 38.18L24.10 38.16L23.89 38.13L23.69 38.10L23.48 38.06L23.28 38.01L23.08 37.96L22.88 37.90L22.69 37.84L22.51 37.76L22.33 37.69L22.16 37.60L22.00 37.51L21.84 37.41L21.68 37.30L21.53 37.18L21.38 37.06L21.24 36.92L21.10 36.78L20.96 36.63L20.83 36.48L20.70 36.32L20.57 36.16L20.46 35.99L20.34 35.82L20.23 35.64L20.13 35.47L20.04 35.29L19.95 35.11L19.86 34.93L19.79 34.75L19.71 34.57L19.64 34.38L19.58 34.18L19.51 33.98L19.45 33.77L19.40 33.56L19.35 33.34L19.31 33.12L19.27 32.91L19.24 32.69L19.22 32.47L19.21 32.26L19.21 32.05L19.22 31.85L19.24 31.65L19.27 31.46L19.32 31.27L19.37 31.10L19.45 30.93L19.53 30.76L19.64 30.59L19.75 30.43L19.88 30.27L20.02 30.11L20.17 29.96L20.32 29.81L20.49 29.67L20.66 29.53L20.83 29.39L21.01 29.26L21.19 29.14L21.37 29.02L21.55 28.91L21.73 28.81L21.91 28.72L22.08 28.63L22.25 28.55L22.42 28.48L22.61 28.41L22.79 28.35L22.98 28.29L23.17 28.24L23.36 28.19L23.55 28.16L23.75 28.12L23.94 28.10L24.14 28.08L24.33 28.07L24.53 28.06L24.72 28.06L24.91 28.07L25.10 28.08L25.28 28.10L25.46 28.13L25.64 28.17L25.82 28.21L26.00 28.26L26.18 28.32L26.36 28.39L26.54 28.46L26.72 28.54L26.90 28.63L27.07 28.72L27.25 28.81L27.41 28.92L27.58 29.03L27.74 29.14L27.89 29.26L28.04 29.38L28.19 29.51L28.32 29.64L28.45 29.77L28.57 29.91L28.70 30.06L28.82 30.21L28.93 30.38L29.04 30.54L29.15 30.72L29.26 30.90L29.36 31.08L29.45 31.27L29.54 31.46L29.62 31.65L29.69 31.85L29.75 32.04L29.81 32.24L29.85 32.43L29.89 32.62L29.92 32.81Z" fill="#EF9D78"/>
</svg>
