<svg width="30" height="38" viewBox="0 0 30 38" fill="none" xmlns="http://www.w3.org/2000/svg">
<path d="M3.20 2.89L3.50 3.35L3.91 3.69L4.42 3.90L4.96 3.93L5.49 3.80L5.95 3.50L6.29 3.09L6.50 2.58L6.53 2.04L6.56 2.44L6.60 2.91L6.65 3.45L6.71 4.05L6.78 4.70L6.85 5.40L6.93 6.14L7.01 6.91L7.10 7.71L7.19 8.52L7.28 9.35L7.38 10.18L7.48 11.00L7.58 11.81L7.67 12.61L7.77 13.38L7.86 14.11L7.95 14.81L8.01 15.48L8.07 16.15L8.12 16.82L8.18 17.48L8.23 18.14L8.28 18.79L8.33 19.44L8.37 20.09L8.41 20.74L8.46 21.38L8.49 22.02L8.53 22.65L8.57 23.29L8.61 23.92L8.64 24.55L8.68 25.18L8.72 25.81L8.75 26.43L8.77 27.07L8.80 27.74L8.83 28.42L8.86 29.11L8.90 29.81L8.94 30.52L8.98 31.22L9.02 31.91L9.06 32.59L9.10 33.26L9.14 33.90L9.18 34.51L9.22 35.09L9.25 35.63L9.27 36.12L9.29 36.57L9.30 36.96L9.31 37.30L9.23 37.02L9.08 36.78L8.85 36.60L8.58 36.50L8.30 36.49L8.02 36.57L7.78 36.72L7.60 36.95L7.50 37.22L7.49 37.50L7.42 37.17L7.35 36.79L7.27 36.35L7.18 35.86L7.09 35.32L7.00 34.75L6.90 34.15L6.80 33.51L6.69 32.86L6.58 32.18L6.47 31.50L6.35 30.80L6.24 30.11L6.12 29.41L6.00 28.73L5.88 28.05L5.76 27.40L5.65 26.77L5.55 26.15L5.45 25.52L5.36 24.90L5.26 24.28L5.16 23.65L5.07 23.02L4.97 22.39L4.88 21.75L4.79 21.11L4.69 20.47L4.61 19.83L4.52 19.18L4.44 18.52L4.35 17.87L4.28 17.21L4.20 16.54L4.13 15.87L4.05 15.19L4.00 14.49L3.95 13.74L3.90 12.97L3.84 12.17L3.79 11.35L3.73 10.52L3.67 9.69L3.61 8.86L3.55 8.04L3.49 7.24L3.43 6.47L3.38 5.72L3.32 5.02L3.26 4.37L3.21 3.77L3.16 3.23L3.11 2.76L3.07 2.36ZM6.00 3.60L6.27 3.23L6.59 2.90L6.98 2.62L7.41 2.38L7.88 2.17L8.39 2.01L8.93 1.87L9.50 1.77L10.09 1.69L10.69 1.63L11.29 1.59L11.90 1.57L12.50 1.56L13.08 1.56L13.66 1.57L14.20 1.58L14.72 1.59L15.20 1.60L15.66 1.62L16.11 1.68L16.55 1.77L16.98 1.88L17.41 2.01L17.83 2.16L18.25 2.33L18.66 2.50L19.06 2.67L19.46 2.85L19.86 3.03L20.26 3.19L20.65 3.35L21.04 3.49L21.43 3.60L21.82 3.70L22.21 3.77L22.60 3.80L23.00 3.79L23.41 3.71L23.83 3.60L24.26 3.44L24.69 3.25L25.13 3.04L25.56 2.83L25.98 2.60L26.40 2.39L26.80 2.19L27.19 2.01L27.56 1.87L27.91 1.77L28.23 1.71L28.53 1.72L28.79 1.80L29.01 1.96L29.20 2.20L29.35 2.54L29.48 2.99L29.58 3.53L29.65 4.14L29.71 4.83L29.73 5.56L29.74 6.34L29.72 7.15L29.69 7.97L29.63 8.81L29.56 9.63L29.47 10.44L29.36 11.21L29.23 11.94L29.10 12.62L28.94 13.23L28.78 13.76L28.60 14.20L28.40 14.57L28.18 14.88L27.93 15.16L27.65 15.40L27.36 15.60L27.04 15.76L26.71 15.90L26.37 16.01L26.01 16.09L25.65 16.15L25.27 16.19L24.89 16.21L24.50 16.23L24.12 16.23L23.73 16.23L23.35 16.22L22.97 16.21L22.60 16.20L22.23 16.18L21.86 16.12L21.49 16.03L21.11 15.91L20.73 15.78L20.34 15.62L19.95 15.46L19.56 15.28L19.16 15.10L18.76 14.92L18.36 14.74L17.95 14.58L17.53 14.42L17.12 14.29L16.69 14.17L16.27 14.08L15.84 14.02L15.40 14.00L14.95 14.03L14.46 14.12L13.96 14.26L13.43 14.44L12.90 14.65L12.35 14.89L11.80 15.14L11.25 15.39L10.70 15.64L10.16 15.87L9.64 16.07L9.14 16.24L8.66 16.37L8.21 16.44L7.80 16.45L7.42 16.39L7.09 16.24L6.80 16.00L6.55 15.65L6.31 15.20L6.10 14.65L5.91 14.01L5.73 13.31L5.59 12.55L5.46 11.74L5.36 10.91L5.29 10.05L5.24 9.19L5.22 8.33L5.24 7.50L5.28 6.69L5.36 5.93L5.46 5.23L5.61 4.60L5.79 4.05Z" fill="#EF9D78"/>
</svg>
