<?xml version="1.0" encoding="UTF-8"?>
<svg id="Warstwa_1" xmlns="http://www.w3.org/2000/svg" version="1.1" viewBox="0 0 367.02 468.19">
  <!-- Generator: Adobe Illustrator 30.6.0, SVG Export Plug-In . SVG Version: 2.1.4 Build 109)  -->
  <defs>
    <style>
      .st0 {
        fill: #ef9d78;
      }
    </style>
  </defs>
  <path class="st0" d="M328.58,126.56l-59.88-.72c3.44-27.51,4.62-54.76-5.67-80.21C249.92,13.1,218.59-4.23,184.09.89c-70.61,10.48-102.54,89.34-106.75,160.31l-44.31,12.02c-20.02,5.42-25.42,19.31-26.79,38.15-5.5,74.27-9.74,146.03-2.06,220.24,2.06,19.67,14.66,36.23,37.38,36.45,75.92.77,151.37-1.54,229.57-11.5,21.02-2.7,38.21-25.31,45.08-43.02,29.73-76.58,47.2-156.51,50.75-237.96,1.16-26.74-13.31-48.74-38.37-49.02ZM224.47,120.29l-98.5,18.65c4.95-44.84,40.16-96.6,74.32-86.4,22.14,6.63,28.94,36.67,24.18,67.75Z"/>
</svg>